<svg width="741" height="82" viewBox="0 0 741 82" fill="none" xmlns="http://www.w3.org/2000/svg">
<g filter="url(#filter0_d_5_6)">
<path d="M4.45455 2.18182H14.5455L38.2727 60.1364H39.0909L62.8182 2.18182H72.9091V72H65V18.9545H64.3182L42.5 72H34.8636L13.0455 18.9545H12.3636V72H4.45455V2.18182ZM104.179 73.2273C100.861 73.2273 97.8494 72.6023 95.1449 71.3523C92.4403 70.0795 90.2926 68.25 88.7017 65.8636C87.1108 63.4545 86.3153 60.5455 86.3153 57.1364C86.3153 54.1364 86.9063 51.7045 88.0881 49.8409C89.2699 47.9545 90.8494 46.4773 92.8267 45.4091C94.804 44.3409 96.9858 43.5455 99.3722 43.0227C101.781 42.4773 104.202 42.0455 106.634 41.7273C109.815 41.3182 112.395 41.0114 114.372 40.8068C116.372 40.5795 117.827 40.2045 118.736 39.6818C119.668 39.1591 120.134 38.25 120.134 36.9545V36.6818C120.134 33.3182 119.213 30.7045 117.372 28.8409C115.554 26.9773 112.793 26.0455 109.088 26.0455C105.247 26.0455 102.236 26.8864 100.054 28.5682C97.8722 30.25 96.3381 32.0455 95.4517 33.9545L87.8153 31.2273C89.179 28.0455 90.9972 25.5682 93.2699 23.7955C95.5653 22 98.0653 20.75 100.77 20.0455C103.497 19.3182 106.179 18.9545 108.815 18.9545C110.497 18.9545 112.429 19.1591 114.611 19.5682C116.815 19.9545 118.94 20.7614 120.986 21.9886C123.054 23.2159 124.77 25.0682 126.134 27.5455C127.497 30.0227 128.179 33.3409 128.179 37.5V72H120.134V64.9091H119.724C119.179 66.0455 118.27 67.2614 116.997 68.5568C115.724 69.8523 114.031 70.9545 111.918 71.8636C109.804 72.7727 107.224 73.2273 104.179 73.2273ZM105.406 66C108.588 66 111.27 65.375 113.452 64.125C115.656 62.875 117.315 61.2614 118.429 59.2841C119.565 57.3068 120.134 55.2273 120.134 53.0455V45.6818C119.793 46.0909 119.043 46.4659 117.884 46.8068C116.747 47.125 115.429 47.4091 113.929 47.6591C112.452 47.8864 111.009 48.0909 109.599 48.2727C108.213 48.4318 107.088 48.5682 106.224 48.6818C104.134 48.9545 102.179 49.3977 100.361 50.0114C98.5653 50.6023 97.1108 51.5 95.9972 52.7045C94.9063 53.8864 94.3608 55.5 94.3608 57.5455C94.3608 60.3409 95.3949 62.4545 97.4631 63.8864C99.554 65.2955 102.202 66 105.406 66ZM150.909 40.5V72H142.864V19.6364H150.636V27.8182H151.318C152.545 25.1591 154.409 23.0227 156.909 21.4091C159.409 19.7727 162.636 18.9545 166.591 18.9545C170.136 18.9545 173.239 19.6818 175.898 21.1364C178.557 22.5682 180.625 24.75 182.102 27.6818C183.58 30.5909 184.318 34.2727 184.318 38.7273V72H176.273V39.2727C176.273 35.1591 175.205 31.9545 173.068 29.6591C170.932 27.3409 168 26.1818 164.273 26.1818C161.705 26.1818 159.409 26.7386 157.386 27.8523C155.386 28.9659 153.807 30.5909 152.648 32.7273C151.489 34.8636 150.909 37.4545 150.909 40.5ZM214.429 73.2273C211.111 73.2273 208.099 72.6023 205.395 71.3523C202.69 70.0795 200.543 68.25 198.952 65.8636C197.361 63.4545 196.565 60.5455 196.565 57.1364C196.565 54.1364 197.156 51.7045 198.338 49.8409C199.52 47.9545 201.099 46.4773 203.077 45.4091C205.054 44.3409 207.236 43.5455 209.622 43.0227C212.031 42.4773 214.452 42.0455 216.884 41.7273C220.065 41.3182 222.645 41.0114 224.622 40.8068C226.622 40.5795 228.077 40.2045 228.986 39.6818C229.918 39.1591 230.384 38.25 230.384 36.9545V36.6818C230.384 33.3182 229.463 30.7045 227.622 28.8409C225.804 26.9773 223.043 26.0455 219.338 26.0455C215.497 26.0455 212.486 26.8864 210.304 28.5682C208.122 30.25 206.588 32.0455 205.702 33.9545L198.065 31.2273C199.429 28.0455 201.247 25.5682 203.52 23.7955C205.815 22 208.315 20.75 211.02 20.0455C213.747 19.3182 216.429 18.9545 219.065 18.9545C220.747 18.9545 222.679 19.1591 224.861 19.5682C227.065 19.9545 229.19 20.7614 231.236 21.9886C233.304 23.2159 235.02 25.0682 236.384 27.5455C237.747 30.0227 238.429 33.3409 238.429 37.5V72H230.384V64.9091H229.974C229.429 66.0455 228.52 67.2614 227.247 68.5568C225.974 69.8523 224.281 70.9545 222.168 71.8636C220.054 72.7727 217.474 73.2273 214.429 73.2273ZM215.656 66C218.838 66 221.52 65.375 223.702 64.125C225.906 62.875 227.565 61.2614 228.679 59.2841C229.815 57.3068 230.384 55.2273 230.384 53.0455V45.6818C230.043 46.0909 229.293 46.4659 228.134 46.8068C226.997 47.125 225.679 47.4091 224.179 47.6591C222.702 47.8864 221.259 48.0909 219.849 48.2727C218.463 48.4318 217.338 48.5682 216.474 48.6818C214.384 48.9545 212.429 49.3977 210.611 50.0114C208.815 50.6023 207.361 51.5 206.247 52.7045C205.156 53.8864 204.611 55.5 204.611 57.5455C204.611 60.3409 205.645 62.4545 207.713 63.8864C209.804 65.2955 212.452 66 215.656 66ZM261.159 40.5V72H253.114V19.6364H260.886V27.8182H261.568C262.795 25.1591 264.659 23.0227 267.159 21.4091C269.659 19.7727 272.886 18.9545 276.841 18.9545C280.386 18.9545 283.489 19.6818 286.148 21.1364C288.807 22.5682 290.875 24.75 292.352 27.6818C293.83 30.5909 294.568 34.2727 294.568 38.7273V72H286.523V39.2727C286.523 35.1591 285.455 31.9545 283.318 29.6591C281.182 27.3409 278.25 26.1818 274.523 26.1818C271.955 26.1818 269.659 26.7386 267.636 27.8523C265.636 28.9659 264.057 30.5909 262.898 32.7273C261.739 34.8636 261.159 37.4545 261.159 40.5ZM317.315 40.5V72H309.27V19.6364H317.043V27.8182H317.724C318.952 25.1591 320.815 23.0227 323.315 21.4091C325.815 19.7727 329.043 18.9545 332.997 18.9545C336.543 18.9545 339.645 19.6818 342.304 21.1364C344.963 22.5682 347.031 24.75 348.509 27.6818C349.986 30.5909 350.724 34.2727 350.724 38.7273V72H342.679V39.2727C342.679 35.1591 341.611 31.9545 339.474 29.6591C337.338 27.3409 334.406 26.1818 330.679 26.1818C328.111 26.1818 325.815 26.7386 323.793 27.8523C321.793 28.9659 320.213 30.5909 319.054 32.7273C317.895 34.8636 317.315 37.4545 317.315 40.5ZM380.835 73.2273C377.517 73.2273 374.506 72.6023 371.801 71.3523C369.097 70.0795 366.949 68.25 365.358 65.8636C363.767 63.4545 362.972 60.5455 362.972 57.1364C362.972 54.1364 363.563 51.7045 364.744 49.8409C365.926 47.9545 367.506 46.4773 369.483 45.4091C371.46 44.3409 373.642 43.5455 376.028 43.0227C378.438 42.4773 380.858 42.0455 383.29 41.7273C386.472 41.3182 389.051 41.0114 391.028 40.8068C393.028 40.5795 394.483 40.2045 395.392 39.6818C396.324 39.1591 396.79 38.25 396.79 36.9545V36.6818C396.79 33.3182 395.869 30.7045 394.028 28.8409C392.21 26.9773 389.449 26.0455 385.744 26.0455C381.903 26.0455 378.892 26.8864 376.71 28.5682C374.528 30.25 372.994 32.0455 372.108 33.9545L364.472 31.2273C365.835 28.0455 367.653 25.5682 369.926 23.7955C372.222 22 374.722 20.75 377.426 20.0455C380.153 19.3182 382.835 18.9545 385.472 18.9545C387.153 18.9545 389.085 19.1591 391.267 19.5682C393.472 19.9545 395.597 20.7614 397.642 21.9886C399.71 23.2159 401.426 25.0682 402.79 27.5455C404.153 30.0227 404.835 33.3409 404.835 37.5V72H396.79V64.9091H396.381C395.835 66.0455 394.926 67.2614 393.653 68.5568C392.381 69.8523 390.688 70.9545 388.574 71.8636C386.46 72.7727 383.881 73.2273 380.835 73.2273ZM382.062 66C385.244 66 387.926 65.375 390.108 64.125C392.313 62.875 393.972 61.2614 395.085 59.2841C396.222 57.3068 396.79 55.2273 396.79 53.0455V45.6818C396.449 46.0909 395.699 46.4659 394.54 46.8068C393.403 47.125 392.085 47.4091 390.585 47.6591C389.108 47.8864 387.665 48.0909 386.256 48.2727C384.869 48.4318 383.744 48.5682 382.881 48.6818C380.79 48.9545 378.835 49.3977 377.017 50.0114C375.222 50.6023 373.767 51.5 372.653 52.7045C371.563 53.8864 371.017 55.5 371.017 57.5455C371.017 60.3409 372.051 62.4545 374.119 63.8864C376.21 65.2955 378.858 66 382.062 66ZM427.565 40.5V72H419.52V19.6364H427.293V27.8182H427.974C429.202 25.1591 431.065 23.0227 433.565 21.4091C436.065 19.7727 439.293 18.9545 443.247 18.9545C446.793 18.9545 449.895 19.6818 452.554 21.1364C455.213 22.5682 457.281 24.75 458.759 27.6818C460.236 30.5909 460.974 34.2727 460.974 38.7273V72H452.929V39.2727C452.929 35.1591 451.861 31.9545 449.724 29.6591C447.588 27.3409 444.656 26.1818 440.929 26.1818C438.361 26.1818 436.065 26.7386 434.043 27.8523C432.043 28.9659 430.463 30.5909 429.304 32.7273C428.145 34.8636 427.565 37.4545 427.565 40.5ZM475.676 72V19.6364H483.449V27.8182H484.131C485.222 25.0227 486.983 22.8523 489.415 21.3068C491.847 19.7386 494.767 18.9545 498.176 18.9545C501.631 18.9545 504.506 19.7386 506.801 21.3068C509.119 22.8523 510.926 25.0227 512.222 27.8182H512.767C514.108 25.1136 516.119 22.9659 518.801 21.375C521.483 19.7614 524.699 18.9545 528.449 18.9545C533.131 18.9545 536.96 20.4205 539.938 23.3523C542.915 26.2614 544.403 30.7955 544.403 36.9545V72H536.358V36.9545C536.358 33.0909 535.301 30.3295 533.188 28.6705C531.074 27.0114 528.585 26.1818 525.722 26.1818C522.04 26.1818 519.188 27.2955 517.165 29.5227C515.142 31.7273 514.131 34.5227 514.131 37.9091V72H505.949V36.1364C505.949 33.1591 504.983 30.7614 503.051 28.9432C501.119 27.1023 498.631 26.1818 495.585 26.1818C493.494 26.1818 491.54 26.7386 489.722 27.8523C487.926 28.9659 486.472 30.5114 485.358 32.4886C484.267 34.4432 483.722 36.7045 483.722 39.2727V72H475.676ZM581.068 73.0909C576.023 73.0909 571.67 71.9773 568.011 69.75C564.375 67.5 561.568 64.3636 559.591 60.3409C557.636 56.2955 556.659 51.5909 556.659 46.2273C556.659 40.8636 557.636 36.1364 559.591 32.0455C561.568 27.9318 564.318 24.7273 567.841 22.4318C571.386 20.1136 575.523 18.9545 580.25 18.9545C582.977 18.9545 585.67 19.4091 588.33 20.3182C590.989 21.2273 593.409 22.7045 595.591 24.75C597.773 26.7727 599.511 29.4545 600.807 32.7955C602.102 36.1364 602.75 40.25 602.75 45.1364V48.5455H562.386V41.5909H594.568C594.568 38.6364 593.977 36 592.795 33.6818C591.636 31.3636 589.977 29.5341 587.818 28.1932C585.682 26.8523 583.159 26.1818 580.25 26.1818C577.045 26.1818 574.273 26.9773 571.932 28.5682C569.614 30.1364 567.83 32.1818 566.58 34.7045C565.33 37.2273 564.705 39.9318 564.705 42.8182V47.4545C564.705 51.4091 565.386 54.7614 566.75 57.5114C568.136 60.2386 570.057 62.3182 572.511 63.75C574.966 65.1591 577.818 65.8636 581.068 65.8636C583.182 65.8636 585.091 65.5682 586.795 64.9773C588.523 64.3636 590.011 63.4545 591.261 62.25C592.511 61.0227 593.477 59.5 594.159 57.6818L601.932 59.8636C601.114 62.5 599.739 64.8182 597.807 66.8182C595.875 68.7955 593.489 70.3409 590.648 71.4545C587.807 72.5455 584.614 73.0909 581.068 73.0909ZM634.761 73.0909C630.398 73.0909 626.545 71.9886 623.205 69.7841C619.864 67.5568 617.25 64.4205 615.364 60.375C613.477 56.3068 612.534 51.5 612.534 45.9545C612.534 40.4545 613.477 35.6818 615.364 31.6364C617.25 27.5909 619.875 24.4659 623.239 22.2614C626.602 20.0568 630.489 18.9545 634.898 18.9545C638.307 18.9545 641 19.5227 642.977 20.6591C644.977 21.7727 646.5 23.0455 647.545 24.4773C648.614 25.8864 649.443 27.0455 650.034 27.9545H650.716V2.18182H658.761V72H650.989V63.9545H650.034C649.443 64.9091 648.602 66.1136 647.511 67.5682C646.42 69 644.864 70.2841 642.841 71.4205C640.818 72.5341 638.125 73.0909 634.761 73.0909ZM635.852 65.8636C639.08 65.8636 641.807 65.0227 644.034 63.3409C646.261 61.6364 647.955 59.2841 649.114 56.2841C650.273 53.2614 650.852 49.7727 650.852 45.8182C650.852 41.9091 650.284 38.4886 649.148 35.5568C648.011 32.6023 646.33 30.3068 644.102 28.6705C641.875 27.0114 639.125 26.1818 635.852 26.1818C632.443 26.1818 629.602 27.0568 627.33 28.8068C625.08 30.5341 623.386 32.8864 622.25 35.8636C621.136 38.8182 620.58 42.1364 620.58 45.8182C620.58 49.5455 621.148 52.9318 622.284 55.9773C623.443 59 625.148 61.4091 627.398 63.2045C629.67 64.9773 632.489 65.8636 635.852 65.8636ZM674.614 72V19.6364H682.659V72H674.614ZM678.705 10.9091C677.136 10.9091 675.784 10.375 674.648 9.30682C673.534 8.23864 672.977 6.95455 672.977 5.45455C672.977 3.95455 673.534 2.67045 674.648 1.60227C675.784 0.53409 677.136 0 678.705 0C680.273 0 681.614 0.53409 682.727 1.60227C683.864 2.67045 684.432 3.95455 684.432 5.45455C684.432 6.95455 683.864 8.23864 682.727 9.30682C681.614 10.375 680.273 10.9091 678.705 10.9091ZM712.804 73.2273C709.486 73.2273 706.474 72.6023 703.77 71.3523C701.065 70.0795 698.918 68.25 697.327 65.8636C695.736 63.4545 694.94 60.5455 694.94 57.1364C694.94 54.1364 695.531 51.7045 696.713 49.8409C697.895 47.9545 699.474 46.4773 701.452 45.4091C703.429 44.3409 705.611 43.5455 707.997 43.0227C710.406 42.4773 712.827 42.0455 715.259 41.7273C718.44 41.3182 721.02 41.0114 722.997 40.8068C724.997 40.5795 726.452 40.2045 727.361 39.6818C728.293 39.1591 728.759 38.25 728.759 36.9545V36.6818C728.759 33.3182 727.838 30.7045 725.997 28.8409C724.179 26.9773 721.418 26.0455 717.713 26.0455C713.872 26.0455 710.861 26.8864 708.679 28.5682C706.497 30.25 704.963 32.0455 704.077 33.9545L696.44 31.2273C697.804 28.0455 699.622 25.5682 701.895 23.7955C704.19 22 706.69 20.75 709.395 20.0455C712.122 19.3182 714.804 18.9545 717.44 18.9545C719.122 18.9545 721.054 19.1591 723.236 19.5682C725.44 19.9545 727.565 20.7614 729.611 21.9886C731.679 23.2159 733.395 25.0682 734.759 27.5455C736.122 30.0227 736.804 33.3409 736.804 37.5V72H728.759V64.9091H728.349C727.804 66.0455 726.895 67.2614 725.622 68.5568C724.349 69.8523 722.656 70.9545 720.543 71.8636C718.429 72.7727 715.849 73.2273 712.804 73.2273ZM714.031 66C717.213 66 719.895 65.375 722.077 64.125C724.281 62.875 725.94 61.2614 727.054 59.2841C728.19 57.3068 728.759 55.2273 728.759 53.0455V45.6818C728.418 46.0909 727.668 46.4659 726.509 46.8068C725.372 47.125 724.054 47.4091 722.554 47.6591C721.077 47.8864 719.634 48.0909 718.224 48.2727C716.838 48.4318 715.713 48.5682 714.849 48.6818C712.759 48.9545 710.804 49.3977 708.986 50.0114C707.19 50.6023 705.736 51.5 704.622 52.7045C703.531 53.8864 702.986 55.5 702.986 57.5455C702.986 60.3409 704.02 62.4545 706.088 63.8864C708.179 65.2955 710.827 66 714.031 66Z" fill="white"/>
</g>
<defs>
<filter id="filter0_d_5_6" x="0.454529" y="0" width="740.349" height="81.2273" filterUnits="userSpaceOnUse" color-interpolation-filters="sRGB">
<feFlood flood-opacity="0" result="BackgroundImageFix"/>
<feColorMatrix in="SourceAlpha" type="matrix" values="0 0 0 0 0 0 0 0 0 0 0 0 0 0 0 0 0 0 127 0" result="hardAlpha"/>
<feOffset dy="4"/>
<feGaussianBlur stdDeviation="2"/>
<feComposite in2="hardAlpha" operator="out"/>
<feColorMatrix type="matrix" values="0 0 0 0 0 0 0 0 0 0 0 0 0 0 0 0 0 0 0.25 0"/>
<feBlend mode="normal" in2="BackgroundImageFix" result="effect1_dropShadow_5_6"/>
<feBlend mode="normal" in="SourceGraphic" in2="effect1_dropShadow_5_6" result="shape"/>
</filter>
</defs>
</svg>
