<svg xmlns="http://www.w3.org/2000/svg" viewBox="0 0 1189 506" preserveAspectRatio="xMidYMid" width="1189" height="506" xmlns:xlink="http://www.w3.org/1999/xlink" style="shape-rendering:auto;display:block;background-position-x:0%;background-position-y:0%;background-size:auto;background-origin:padding-box;background-clip:border-box;background:scroll rgb(26, 27, 32) none  repeat;width:1189px;height:506px;;animation:none"><g><path stroke-width="2" stroke-opacity="0" stroke="rgb(98, 82, 197)" fill="none" d="M 0 281 C 198 281 397 357 595 357 C 793 357 992 281 1190 281 C 1388 281 1587 357 1785 357 C 1983 357 2182 281 2380 281" transform="matrix(1,0,0,1,0,0)" style="fill:none;stroke:rgb(98, 82, 197);transform:matrix(1, 0, 0, 1, 0, 0);;animation:none"></path>
<path stroke-width="2" stroke-opacity="0" stroke="rgb(98, 82, 197)" fill="none" d="M 0 281.012 C 198 281.012 397 356.988 595 356.988 C 793 356.988 992 281.012 1190 281.012 C 1388 281.012 1587 356.988 1785 356.988 C 1983 356.988 2182 281.012 2380 281.012" transform="matrix(1,0,0,1,-6.34123420715332,0)" style="fill:none;stroke:rgb(98, 82, 197);transform:matrix(1, 0, 0, 1, -6.34123, 0);;animation:none"></path>
<path stroke-width="2" stroke-opacity="0" stroke="rgb(98, 82, 197)" fill="none" d="M 0 281.047 C 198 281.047 397 356.953 595 356.953 C 793 356.953 992 281.047 1190 281.047 C 1388 281.047 1587 356.953 1785 356.953 C 1983 356.953 2182 281.047 2380 281.047" transform="matrix(1,0,0,1,-12.68246841430664,0)" style="fill:none;stroke:rgb(98, 82, 197);transform:matrix(1, 0, 0, 1, -12.6825, 0);;animation:none"></path>
<path stroke-width="2" stroke-opacity="0" stroke="rgb(98, 82, 197)" fill="none" d="M 0 281.107 C 198 281.107 397 356.893 595 356.893 C 793 356.893 992 281.107 1190 281.107 C 1388 281.107 1587 356.893 1785 356.893 C 1983 356.893 2182 281.107 2380 281.107" transform="matrix(1,0,0,1,-19.02400016784668,0)" style="fill:none;stroke:rgb(98, 82, 197);transform:matrix(1, 0, 0, 1, -19.024, 0);;animation:none"></path>
<path stroke-width="2" stroke-opacity="0" stroke="rgb(97, 83, 197)" fill="none" d="M 0 281.192 C 198 281.192 397 356.808 595 356.808 C 793 356.808 992 281.192 1190 281.192 C 1388 281.192 1587 356.808 1785 356.808 C 1983 356.808 2182 281.192 2380 281.192" transform="matrix(1,0,0,1,-25.365232467651367,0)" style="fill:none;stroke:rgb(97, 83, 197);transform:matrix(1, 0, 0, 1, -25.3652, 0);;animation:none"></path>
<path stroke-width="2" stroke-opacity="0" stroke="rgb(97, 83, 197)" fill="none" d="M 0 281.303 C 198 281.303 397 356.697 595 356.697 C 793 356.697 992 281.303 1190 281.303 C 1388 281.303 1587 356.697 1785 356.697 C 1983 356.697 2182 281.303 2380 281.303" transform="matrix(1,0,0,1,-31.70646858215332,0)" style="fill:none;stroke:rgb(97, 83, 197);transform:matrix(1, 0, 0, 1, -31.7065, 0);;animation:none"></path>
<path stroke-width="2" stroke-opacity="0" stroke="rgb(97, 84, 198)" fill="none" d="M 0 281.44 C 198 281.44 397 356.56 595 356.56 C 793 356.56 992 281.44 1190 281.44 C 1388 281.44 1587 356.56 1785 356.56 C 1983 356.56 2182 281.44 2380 281.44" transform="matrix(1,0,0,1,-38.04800033569336,0)" style="fill:none;stroke:rgb(97, 84, 198);transform:matrix(1, 0, 0, 1, -38.048, 0);;animation:none"></path>
<path stroke-width="2" stroke-opacity="0" stroke="rgb(96, 85, 198)" fill="none" d="M 0 281.605 C 198 281.605 397 356.395 595 356.395 C 793 356.395 992 281.605 1190 281.605 C 1388 281.605 1587 356.395 1785 356.395 C 1983 356.395 2182 281.605 2380 281.605" transform="matrix(1,0,0,1,-44.38923263549805,0)" style="fill:none;stroke:rgb(96, 85, 198);transform:matrix(1, 0, 0, 1, -44.3892, 0);;animation:none"></path>
<path stroke-width="2" stroke-opacity="0" stroke="rgb(95, 86, 198)" fill="none" d="M 0 281.798 C 198 281.798 397 356.202 595 356.202 C 793 356.202 992 281.798 1190 281.798 C 1388 281.798 1587 356.202 1785 356.202 C 1983 356.202 2182 281.798 2380 281.798" transform="matrix(1,0,0,1,-50.730464935302734,0)" style="fill:none;stroke:rgb(95, 86, 198);transform:matrix(1, 0, 0, 1, -50.7305, 0);;animation:none"></path>
<path stroke-width="2" stroke-opacity="0" stroke="rgb(95, 87, 198)" fill="none" d="M 0 282.02 C 198 282.02 397 355.98 595 355.98 C 793 355.98 992 282.02 1190 282.02 C 1388 282.02 1587 355.98 1785 355.98 C 1983 355.98 2182 282.02 2380 282.02" transform="matrix(1,0,0,1,-57.071998596191406,0)" style="fill:none;stroke:rgb(95, 87, 198);transform:matrix(1, 0, 0, 1, -57.072, 0);;animation:none"></path>
<path stroke-width="2" stroke-opacity="0" stroke="rgb(94, 88, 199)" fill="none" d="M 0 282.272 C 198 282.272 397 355.728 595 355.728 C 793 355.728 992 282.272 1190 282.272 C 1388 282.272 1587 355.728 1785 355.728 C 1983 355.728 2182 282.272 2380 282.272" transform="matrix(1,0,0,1,-63.41323471069336,0)" style="fill:none;stroke:rgb(94, 88, 199);transform:matrix(1, 0, 0, 1, -63.4132, 0);;animation:none"></path>
<path stroke-width="2" stroke-opacity="0" stroke="rgb(93, 89, 199)" fill="none" d="M 0 282.556 C 198 282.556 397 355.444 595 355.444 C 793 355.444 992 282.556 1190 282.556 C 1388 282.556 1587 355.444 1785 355.444 C 1983 355.444 2182 282.556 2380 282.556" transform="matrix(1,0,0,1,-69.75447082519531,0)" style="fill:none;stroke:rgb(93, 89, 199);transform:matrix(1, 0, 0, 1, -69.7545, 0);;animation:none"></path>
<path stroke-width="2" stroke-opacity="0" stroke="rgb(92, 91, 200)" fill="none" d="M 0 282.87 C 198 282.87 397 355.13 595 355.13 C 793 355.13 992 282.87 1190 282.87 C 1388 282.87 1587 355.13 1785 355.13 C 1983 355.13 2182 282.87 2380 282.87" transform="matrix(1,0,0,1,-76.09600067138672,0)" style="fill:none;stroke:rgb(92, 91, 200);transform:matrix(1, 0, 0, 1, -76.096, 0);;animation:none"></path>
<path stroke-width="2" stroke-opacity="0" stroke="rgb(91, 92, 200)" fill="none" d="M 0 283.218 C 198 283.218 397 354.782 595 354.782 C 793 354.782 992 283.218 1190 283.218 C 1388 283.218 1587 354.782 1785 354.782 C 1983 354.782 2182 283.218 2380 283.218" transform="matrix(1,0,0,1,-82.4372329711914,0)" style="fill:none;stroke:rgb(91, 92, 200);transform:matrix(1, 0, 0, 1, -82.4372, 0);;animation:none"></path>
<path stroke-width="2" stroke-opacity="0" stroke="rgb(89, 94, 201)" fill="none" d="M 0 283.599 C 198 283.599 397 354.401 595 354.401 C 793 354.401 992 283.599 1190 283.599 C 1388 283.599 1587 354.401 1785 354.401 C 1983 354.401 2182 283.599 2380 283.599" transform="matrix(1,0,0,1,-88.7784652709961,0)" style="fill:none;stroke:rgb(89, 94, 201);transform:matrix(1, 0, 0, 1, -88.7785, 0);;animation:none"></path>
<path stroke-width="2" stroke-opacity="0" stroke="rgb(88, 96, 202)" fill="none" d="M 0 284.015 C 198 284.015 397 353.985 595 353.985 C 793 353.985 992 284.015 1190 284.015 C 1388 284.015 1587 353.985 1785 353.985 C 1983 353.985 2182 284.015 2380 284.015" transform="matrix(1,0,0,1,-95.1199951171875,0)" style="fill:none;stroke:rgb(88, 96, 202);transform:matrix(1, 0, 0, 1, -95.12, 0);;animation:none"></path>
<path stroke-width="2" stroke-opacity="0" stroke="rgb(86, 99, 202)" fill="none" d="M 0 284.467 C 198 284.467 397 353.533 595 353.533 C 793 353.533 992 284.467 1190 284.467 C 1388 284.467 1587 353.533 1785 353.533 C 1983 353.533 2182 284.467 2380 284.467" transform="matrix(1,0,0,1,-101.46123504638672,0)" style="fill:none;stroke:rgb(86, 99, 202);transform:matrix(1, 0, 0, 1, -101.461, 0);;animation:none"></path>
<path stroke-width="2" stroke-opacity="0" stroke="rgb(84, 101, 203)" fill="none" d="M 0 284.955 C 198 284.955 397 353.045 595 353.045 C 793 353.045 992 284.955 1190 284.955 C 1388 284.955 1587 353.045 1785 353.045 C 1983 353.045 2182 284.955 2380 284.955" transform="matrix(1,0,0,1,-107.80247497558594,0)" style="fill:none;stroke:rgb(84, 101, 203);transform:matrix(1, 0, 0, 1, -107.802, 0);;animation:none"></path>
<path stroke-width="2" stroke-opacity="0" stroke="rgb(82, 104, 204)" fill="none" d="M 0 285.482 C 198 285.482 397 352.518 595 352.518 C 793 352.518 992 285.482 1190 285.482 C 1388 285.482 1587 352.518 1785 352.518 C 1983 352.518 2182 285.482 2380 285.482" transform="matrix(1,0,0,1,-114.14399719238281,0)" style="fill:none;stroke:rgb(82, 104, 204);transform:matrix(1, 0, 0, 1, -114.144, 0);;animation:none"></path>
<path stroke-width="2" stroke-opacity="0" stroke="rgb(80, 107, 205)" fill="none" d="M 0 286.047 C 198 286.047 397 351.953 595 351.953 C 793 351.953 992 286.047 1190 286.047 C 1388 286.047 1587 351.953 1785 351.953 C 1983 351.953 2182 286.047 2380 286.047" transform="matrix(1,0,0,1,-120.48523712158203,0)" style="fill:none;stroke:rgb(80, 107, 205);transform:matrix(1, 0, 0, 1, -120.485, 0);;animation:none"></path>
<path stroke-width="2" stroke-opacity="0" stroke="rgb(78, 109, 206)" fill="none" d="M 0 286.651 C 198 286.651 397 351.349 595 351.349 C 793 351.349 992 286.651 1190 286.651 C 1388 286.651 1587 351.349 1785 351.349 C 1983 351.349 2182 286.651 2380 286.651" transform="matrix(1,0,0,1,-126.82646942138672,0)" style="fill:none;stroke:rgb(78, 109, 206);transform:matrix(1, 0, 0, 1, -126.826, 0);;animation:none"></path>
<path stroke-width="2" stroke-opacity="0" stroke="rgb(76, 113, 207)" fill="none" d="M 0 287.297 C 198 287.297 397 350.703 595 350.703 C 793 350.703 992 287.297 1190 287.297 C 1388 287.297 1587 350.703 1785 350.703 C 1983 350.703 2182 287.297 2380 287.297" transform="matrix(1,0,0,1,-133.16799926757812,0)" style="fill:none;stroke:rgb(76, 113, 207);transform:matrix(1, 0, 0, 1, -133.168, 0);;animation:none"></path>
<path stroke-width="2" stroke-opacity="0" stroke="rgb(73, 116, 208)" fill="none" d="M 0 287.984 C 198 287.984 397 350.016 595 350.016 C 793 350.016 992 287.984 1190 287.984 C 1388 287.984 1587 350.016 1785 350.016 C 1983 350.016 2182 287.984 2380 287.984" transform="matrix(1,0,0,1,-139.5092315673828,0)" style="fill:none;stroke:rgb(73, 116, 208);transform:matrix(1, 0, 0, 1, -139.509, 0);;animation:none"></path>
<path stroke-width="2" stroke-opacity="0" stroke="rgb(71, 119, 209)" fill="none" d="M 0 288.715 C 198 288.715 397 349.285 595 349.285 C 793 349.285 992 288.715 1190 288.715 C 1388 288.715 1587 349.285 1785 349.285 C 1983 349.285 2182 288.715 2380 288.715" transform="matrix(1,0,0,1,-145.8504638671875,0)" style="fill:none;stroke:rgb(71, 119, 209);transform:matrix(1, 0, 0, 1, -145.85, 0);;animation:none"></path>
<path stroke-width="2" stroke-opacity="0" stroke="rgb(69, 122, 210)" fill="none" d="M 0 289.489 C 198 289.489 397 348.511 595 348.511 C 793 348.511 992 289.489 1190 289.489 C 1388 289.489 1587 348.511 1785 348.511 C 1983 348.511 2182 289.489 2380 289.489" transform="matrix(1,0,0,1,-152.19200134277344,0)" style="fill:none;stroke:rgb(69, 122, 210);transform:matrix(1, 0, 0, 1, -152.192, 0);;animation:none"></path>
<path stroke-width="2" stroke-opacity="0" stroke="rgb(66, 126, 211)" fill="none" d="M 0 290.307 C 198 290.307 397 347.693 595 347.693 C 793 347.693 992 290.307 1190 290.307 C 1388 290.307 1587 347.693 1785 347.693 C 1983 347.693 2182 290.307 2380 290.307" transform="matrix(1,0,0,1,-158.53323364257812,0)" style="fill:none;stroke:rgb(66, 126, 211);transform:matrix(1, 0, 0, 1, -158.533, 0);;animation:none"></path>
<path stroke-width="2" stroke-opacity="0" stroke="rgb(64, 129, 212)" fill="none" d="M 0 291.172 C 198 291.172 397 346.828 595 346.828 C 793 346.828 992 291.172 1190 291.172 C 1388 291.172 1587 346.828 1785 346.828 C 1983 346.828 2182 291.172 2380 291.172" transform="matrix(1,0,0,1,-164.8744659423828,0)" style="fill:none;stroke:rgb(64, 129, 212);transform:matrix(1, 0, 0, 1, -164.874, 0);;animation:none"></path>
<path stroke-width="2" stroke-opacity="0" stroke="rgb(62, 132, 213)" fill="none" d="M 0 292.082 C 198 292.082 397 345.918 595 345.918 C 793 345.918 992 292.082 1190 292.082 C 1388 292.082 1587 345.918 1785 345.918 C 1983 345.918 2182 292.082 2380 292.082" transform="matrix(1,0,0,1,-171.2159881591797,0)" style="fill:none;stroke:rgb(62, 132, 213);transform:matrix(1, 0, 0, 1, -171.216, 0);;animation:none"></path>
<path stroke-width="2" stroke-opacity="0" stroke="rgb(60, 135, 214)" fill="none" d="M 0 293.039 C 198 293.039 397 344.961 595 344.961 C 793 344.961 992 293.039 1190 293.039 C 1388 293.039 1587 344.961 1785 344.961 C 1983 344.961 2182 293.039 2380 293.039" transform="matrix(1,0,0,1,-177.55723571777344,0)" style="fill:none;stroke:rgb(60, 135, 214);transform:matrix(1, 0, 0, 1, -177.557, 0);;animation:none"></path>
<path stroke-width="2" stroke-opacity="0" stroke="rgb(58, 138, 215)" fill="none" d="M 0 294.043 C 198 294.043 397 343.957 595 343.957 C 793 343.957 992 294.044 1190 294.044 C 1388 294.044 1587 343.957 1785 343.957 C 1983 343.957 2182 294.044 2380 294.044" transform="matrix(1,0,0,1,-183.89846801757812,0)" style="fill:none;stroke:rgb(58, 138, 215);transform:matrix(1, 0, 0, 1, -183.898, 0);;animation:none"></path>
<path stroke-width="2" stroke-opacity="0" stroke="rgb(56, 140, 216)" fill="none" d="M 0 295.096 C 198 295.096 397 342.904 595 342.904 C 793 342.904 992 295.096 1190 295.096 C 1388 295.096 1587 342.904 1785 342.904 C 1983 342.904 2182 295.096 2380 295.096" transform="matrix(1,0,0,1,-190.239990234375,0)" style="fill:none;stroke:rgb(56, 140, 216);transform:matrix(1, 0, 0, 1, -190.24, 0);;animation:none"></path>
<path stroke-width="2" stroke-opacity="0" stroke="rgb(54, 143, 217)" fill="none" d="M 0 296.195 C 198 296.195 397 341.805 595 341.805 C 793 341.805 992 296.195 1190 296.195 C 1388 296.195 1587 341.805 1785 341.805 C 1983 341.805 2182 296.195 2380 296.195" transform="matrix(1,0,0,1,-196.58123779296875,0)" style="fill:none;stroke:rgb(54, 143, 217);transform:matrix(1, 0, 0, 1, -196.581, 0);;animation:none"></path>
<path stroke-width="2" stroke-opacity="0" stroke="rgb(52, 145, 217)" fill="none" d="M 0 297.343 C 198 297.343 397 340.657 595 340.657 C 793 340.657 992 297.343 1190 297.343 C 1388 297.343 1587 340.657 1785 340.657 C 1983 340.657 2182 297.343 2380 297.343" transform="matrix(1,0,0,1,-202.92247009277344,0)" style="fill:none;stroke:rgb(52, 145, 217);transform:matrix(1, 0, 0, 1, -202.922, 0);;animation:none"></path>
<path stroke-width="2" stroke-opacity="0" stroke="rgb(51, 147, 218)" fill="none" d="M 0 298.537 C 198 298.537 397 339.463 595 339.463 C 793 339.463 992 298.537 1190 298.537 C 1388 298.537 1587 339.463 1785 339.463 C 1983 339.463 2182 298.537 2380 298.537" transform="matrix(1,0,0,1,-209.2639923095703,0)" style="fill:none;stroke:rgb(51, 147, 218);transform:matrix(1, 0, 0, 1, -209.264, 0);;animation:none"></path>
<path stroke-width="2" stroke-opacity="0" stroke="rgb(49, 149, 219)" fill="none" d="M 0 299.779 C 198 299.779 397 338.221 595 338.221 C 793 338.221 992 299.779 1190 299.779 C 1388 299.779 1587 338.221 1785 338.221 C 1983 338.221 2182 299.779 2380 299.779" transform="matrix(1,0,0,1,-215.605224609375,0)" style="fill:none;stroke:rgb(49, 149, 219);transform:matrix(1, 0, 0, 1, -215.605, 0);;animation:none"></path>
<path stroke-width="2" stroke-opacity="0" stroke="rgb(48, 151, 219)" fill="none" d="M 0 301.066 C 198 301.066 397 336.934 595 336.934 C 793 336.934 992 301.066 1190 301.066 C 1388 301.066 1587 336.934 1785 336.934 C 1983 336.934 2182 301.066 2380 301.066" transform="matrix(1,0,0,1,-221.94647216796875,0)" style="fill:none;stroke:rgb(48, 151, 219);transform:matrix(1, 0, 0, 1, -221.946, 0);;animation:none"></path>
<path stroke-width="2" stroke-opacity="0" stroke="rgb(47, 152, 220)" fill="none" d="M 0 302.397 C 198 302.397 397 335.603 595 335.603 C 793 335.603 992 302.397 1190 302.397 C 1388 302.397 1587 335.603 1785 335.603 C 1983 335.603 2182 302.397 2380 302.397" transform="matrix(1,0,0,1,-228.28799438476562,0)" style="fill:none;stroke:rgb(47, 152, 220);transform:matrix(1, 0, 0, 1, -228.288, 0);;animation:none"></path>
<path stroke-width="2" stroke-opacity="0" stroke="rgb(46, 153, 220)" fill="none" d="M 0 303.771 C 198 303.771 397 334.229 595 334.229 C 793 334.229 992 303.771 1190 303.771 C 1388 303.771 1587 334.229 1785 334.229 C 1983 334.229 2182 303.771 2380 303.771" transform="matrix(1,0,0,1,-234.6292266845703,0)" style="fill:none;stroke:rgb(46, 153, 220);transform:matrix(1, 0, 0, 1, -234.629, 0);;animation:none"></path>
<path stroke-width="2" stroke-opacity="0" stroke="rgb(45, 155, 221)" fill="none" d="M 0 305.186 C 198 305.186 397 332.814 595 332.814 C 793 332.814 992 305.186 1190 305.186 C 1388 305.186 1587 332.814 1785 332.814 C 1983 332.814 2182 305.186 2380 305.186" transform="matrix(1,0,0,1,-240.97047424316406,0)" style="fill:none;stroke:rgb(45, 155, 221);transform:matrix(1, 0, 0, 1, -240.97, 0);;animation:none"></path>
<path stroke-width="2" stroke-opacity="0" stroke="rgb(44, 156, 221)" fill="none" d="M 0 306.639 C 198 306.639 397 331.361 595 331.361 C 793 331.361 992 306.639 1190 306.639 C 1388 306.639 1587 331.361 1785 331.361 C 1983 331.361 2182 306.639 2380 306.639" transform="matrix(1,0,0,1,-247.31201171875,0)" style="fill:none;stroke:rgb(44, 156, 221);transform:matrix(1, 0, 0, 1, -247.312, 0);;animation:none"></path>
<path stroke-width="2" stroke-opacity="0" stroke="rgb(44, 156, 221)" fill="none" d="M 0 308.127 C 198 308.127 397 329.873 595 329.873 C 793 329.873 992 308.127 1190 308.127 C 1388 308.127 1587 329.873 1785 329.873 C 1983 329.873 2182 308.127 2380 308.127" transform="matrix(1,0,0,1,-253.65322875976562,0)" style="fill:none;stroke:rgb(44, 156, 221);transform:matrix(1, 0, 0, 1, -253.653, 0);;animation:none"></path>
<path stroke-width="2" stroke-opacity="0" stroke="rgb(43, 157, 221)" fill="none" d="M 0 309.647 C 198 309.647 397 328.353 595 328.353 C 793 328.353 992 309.647 1190 309.647 C 1388 309.647 1587 328.353 1785 328.353 C 1983 328.353 2182 309.647 2380 309.647" transform="matrix(1,0,0,1,-259.9944763183594,0)" style="fill:none;stroke:rgb(43, 157, 221);transform:matrix(1, 0, 0, 1, -259.994, 0);;animation:none"></path>
<path stroke-width="2" stroke-opacity="0" stroke="rgb(43, 158, 222)" fill="none" d="M 0 311.195 C 198 311.195 397 326.805 595 326.805 C 793 326.805 992 311.195 1190 311.195 C 1388 311.195 1587 326.805 1785 326.805 C 1983 326.805 2182 311.195 2380 311.195" transform="matrix(1,0,0,1,-266.33599853515625,0)" style="fill:none;stroke:rgb(43, 158, 222);transform:matrix(1, 0, 0, 1, -266.336, 0);;animation:none"></path>
<path stroke-width="2" stroke-opacity="0" stroke="rgb(43, 158, 222)" fill="none" d="M 0 312.768 C 198 312.768 397 325.232 595 325.232 C 793 325.232 992 312.768 1190 312.768 C 1388 312.768 1587 325.232 1785 325.232 C 1983 325.232 2182 312.768 2380 312.768" transform="matrix(1,0,0,1,-272.67724609375,0)" style="fill:none;stroke:rgb(43, 158, 222);transform:matrix(1, 0, 0, 1, -272.677, 0);;animation:none"></path>
<path stroke-width="2" stroke-opacity="0" stroke="rgb(42, 159, 222)" fill="none" d="M 0 314.359 C 198 314.359 397 323.641 595 323.641 C 793 323.641 992 314.359 1190 314.359 C 1388 314.359 1587 323.641 1785 323.641 C 1983 323.641 2182 314.359 2380 314.359" transform="matrix(1,0,0,1,-279.0184631347656,0)" style="fill:none;stroke:rgb(42, 159, 222);transform:matrix(1, 0, 0, 1, -279.018, 0);;animation:none"></path>
<path stroke-width="2" stroke-opacity="0" stroke="rgb(42, 159, 222)" fill="none" d="M 0 315.966 C 198 315.966 397 322.034 595 322.034 C 793 322.034 992 315.966 1190 315.966 C 1388 315.966 1587 322.034 1785 322.034 C 1983 322.034 2182 315.966 2380 315.966" transform="matrix(1,0,0,1,-285.3599853515625,0)" style="fill:none;stroke:rgb(42, 159, 222);transform:matrix(1, 0, 0, 1, -285.36, 0);;animation:none"></path>
<path stroke-width="2" stroke-opacity="0.022727272727272728" stroke="rgb(42, 159, 222)" fill="none" d="M 0 317.582 C 198 317.582 397 320.418 595 320.418 C 793 320.418 992 317.582 1190 317.582 C 1388 317.582 1587 320.418 1785 320.418 C 1983 320.418 2182 317.582 2380 317.582" transform="matrix(1,0,0,1,-291.70123291015625,0)" style="fill:none;stroke:rgb(42, 159, 222);transform:matrix(1, 0, 0, 1, -291.701, 0);;animation:none"></path>
<path stroke-width="2" stroke-opacity="0.045454545454545456" stroke="rgb(42, 159, 222)" fill="none" d="M 0 319.203 C 198 319.203 397 318.797 595 318.797 C 793 318.797 992 319.203 1190 319.203 C 1388 319.203 1587 318.797 1785 318.797 C 1983 318.797 2182 319.203 2380 319.203" transform="matrix(1,0,0,1,-298.04248046875,0)" style="fill:none;stroke:rgb(42, 159, 222);transform:matrix(1, 0, 0, 1, -298.042, 0);;animation:none"></path>
<path stroke-width="2" stroke-opacity="0.06818181818181818" stroke="rgb(42, 159, 222)" fill="none" d="M 0 320.823 C 198 320.823 397 317.177 595 317.177 C 793 317.177 992 320.823 1190 320.823 C 1388 320.823 1587 317.177 1785 317.177 C 1983 317.177 2182 320.823 2380 320.823" transform="matrix(1,0,0,1,-304.3840026855469,0)" style="fill:none;stroke:rgb(42, 159, 222);transform:matrix(1, 0, 0, 1, -304.384, 0);;animation:none"></path>
<path stroke-width="2" stroke-opacity="0.09090909090909091" stroke="rgb(42, 159, 222)" fill="none" d="M 0 322.437 C 198 322.437 397 315.563 595 315.563 C 793 315.563 992 322.437 1190 322.437 C 1388 322.437 1587 315.563 1785 315.563 C 1983 315.563 2182 322.437 2380 322.437" transform="matrix(1,0,0,1,-310.7252502441406,0)" style="fill:none;stroke:rgb(42, 159, 222);transform:matrix(1, 0, 0, 1, -310.725, 0);;animation:none"></path>
<path stroke-width="2" stroke-opacity="0.11363636363636363" stroke="rgb(42, 159, 222)" fill="none" d="M 0 324.04 C 198 324.04 397 313.96 595 313.96 C 793 313.96 992 324.04 1190 324.04 C 1388 324.04 1587 313.96 1785 313.96 C 1983 313.96 2182 324.04 2380 324.04" transform="matrix(1,0,0,1,-317.06646728515625,0)" style="fill:none;stroke:rgb(42, 159, 222);transform:matrix(1, 0, 0, 1, -317.066, 0);;animation:none"></path>
<path stroke-width="2" stroke-opacity="0.13636363636363635" stroke="rgb(42, 160, 221)" fill="none" d="M 0 325.627 C 198 325.627 397 312.373 595 312.373 C 793 312.373 992 325.627 1190 325.627 C 1388 325.627 1587 312.373 1785 312.373 C 1983 312.373 2182 325.627 2380 325.627" transform="matrix(1,0,0,1,-323.40802001953125,0)" style="fill:none;stroke:rgb(42, 160, 221);transform:matrix(1, 0, 0, 1, -323.408, 0);;animation:none"></path>
<path stroke-width="2" stroke-opacity="0.1590909090909091" stroke="rgb(42, 160, 221)" fill="none" d="M 0 327.194 C 198 327.194 397 310.806 595 310.806 C 793 310.806 992 327.194 1190 327.194 C 1388 327.194 1587 310.806 1785 310.806 C 1983 310.806 2182 327.194 2380 327.194" transform="matrix(1,0,0,1,-329.7492370605469,0)" style="fill:none;stroke:rgb(42, 160, 221);transform:matrix(1, 0, 0, 1, -329.749, 0);;animation:none"></path>
<path stroke-width="2" stroke-opacity="0.18181818181818182" stroke="rgb(42, 161, 220)" fill="none" d="M 0 328.736 C 198 328.736 397 309.264 595 309.264 C 793 309.264 992 328.736 1190 328.736 C 1388 328.736 1587 309.264 1785 309.264 C 1983 309.264 2182 328.736 2380 328.736" transform="matrix(1,0,0,1,-336.0904846191406,0)" style="fill:none;stroke:rgb(42, 161, 220);transform:matrix(1, 0, 0, 1, -336.09, 0);;animation:none"></path>
<path stroke-width="2" stroke-opacity="0.20454545454545456" stroke="rgb(42, 161, 220)" fill="none" d="M 0 330.248 C 198 330.248 397 307.752 595 307.752 C 793 307.752 992 330.248 1190 330.248 C 1388 330.248 1587 307.752 1785 307.752 C 1983 307.752 2182 330.248 2380 330.248" transform="matrix(1,0,0,1,-342.4319763183594,0)" style="fill:none;stroke:rgb(42, 161, 220);transform:matrix(1, 0, 0, 1, -342.432, 0);;animation:none"></path>
<path stroke-width="2" stroke-opacity="0.22727272727272727" stroke="rgb(42, 162, 219)" fill="none" d="M 0 331.728 C 198 331.728 397 306.272 595 306.272 C 793 306.272 992 331.728 1190 331.728 C 1388 331.728 1587 306.272 1785 306.272 C 1983 306.272 2182 331.728 2380 331.728" transform="matrix(1,0,0,1,-348.77325439453125,0)" style="fill:none;stroke:rgb(42, 162, 219);transform:matrix(1, 0, 0, 1, -348.773, 0);;animation:none"></path>
<path stroke-width="2" stroke-opacity="0.25" stroke="rgb(41, 163, 218)" fill="none" d="M 0 333.171 C 198 333.171 397 304.829 595 304.829 C 793 304.829 992 333.171 1190 333.171 C 1388 333.171 1587 304.829 1785 304.829 C 1983 304.829 2182 333.171 2380 333.171" transform="matrix(1,0,0,1,-355.1144714355469,0)" style="fill:none;stroke:rgb(41, 163, 218);transform:matrix(1, 0, 0, 1, -355.114, 0);;animation:none"></path>
<path stroke-width="2" stroke-opacity="0.2727272727272727" stroke="rgb(41, 164, 217)" fill="none" d="M 0 334.576 C 198 334.576 397 303.424 595 303.424 C 793 303.424 992 334.576 1190 334.576 C 1388 334.576 1587 303.424 1785 303.424 C 1983 303.424 2182 334.576 2380 334.576" transform="matrix(1,0,0,1,-361.45599365234375,0)" style="fill:none;stroke:rgb(41, 164, 217);transform:matrix(1, 0, 0, 1, -361.456, 0);;animation:none"></path>
<path stroke-width="2" stroke-opacity="0.29545454545454547" stroke="rgb(41, 166, 215)" fill="none" d="M 0 335.94 C 198 335.94 397 302.06 595 302.06 C 793 302.06 992 335.94 1190 335.94 C 1388 335.94 1587 302.06 1785 302.06 C 1983 302.06 2182 335.94 2380 335.94" transform="matrix(1,0,0,1,-367.7972412109375,0)" style="fill:none;stroke:rgb(41, 166, 215);transform:matrix(1, 0, 0, 1, -367.797, 0);;animation:none"></path>
<path stroke-width="2" stroke-opacity="0.3181818181818182" stroke="rgb(41, 167, 214)" fill="none" d="M 0 337.26 C 198 337.26 397 300.74 595 300.74 C 793 300.74 992 337.26 1190 337.26 C 1388 337.26 1587 300.74 1785 300.74 C 1983 300.74 2182 337.26 2380 337.26" transform="matrix(1,0,0,1,-374.13848876953125,0)" style="fill:none;stroke:rgb(41, 167, 214);transform:matrix(1, 0, 0, 1, -374.138, 0);;animation:none"></path>
<path stroke-width="2" stroke-opacity="0.3409090909090909" stroke="rgb(41, 168, 213)" fill="none" d="M 0 338.536 C 198 338.536 397 299.464 595 299.464 C 793 299.464 992 338.536 1190 338.536 C 1388 338.536 1587 299.464 1785 299.464 C 1983 299.464 2182 338.536 2380 338.536" transform="matrix(1,0,0,1,-380.47998046875,0)" style="fill:none;stroke:rgb(41, 168, 213);transform:matrix(1, 0, 0, 1, -380.48, 0);;animation:none"></path>
<path stroke-width="2" stroke-opacity="0.36363636363636365" stroke="rgb(41, 170, 211)" fill="none" d="M 0 339.766 C 198 339.766 397 298.234 595 298.234 C 793 298.234 992 339.766 1190 339.766 C 1388 339.766 1587 298.234 1785 298.234 C 1983 298.234 2182 339.766 2380 339.766" transform="matrix(1,0,0,1,-386.82122802734375,0)" style="fill:none;stroke:rgb(41, 170, 211);transform:matrix(1, 0, 0, 1, -386.821, 0);;animation:none"></path>
<path stroke-width="2" stroke-opacity="0.38636363636363635" stroke="rgb(40, 172, 209)" fill="none" d="M 0 340.949 C 198 340.949 397 297.051 595 297.051 C 793 297.051 992 340.949 1190 340.949 C 1388 340.949 1587 297.051 1785 297.051 C 1983 297.051 2182 340.949 2380 340.949" transform="matrix(1,0,0,1,-393.1624755859375,0)" style="fill:none;stroke:rgb(40, 172, 209);transform:matrix(1, 0, 0, 1, -393.162, 0);;animation:none"></path>
<path stroke-width="2" stroke-opacity="0.4090909090909091" stroke="rgb(40, 174, 207)" fill="none" d="M 0 342.084 C 198 342.084 397 295.916 595 295.916 C 793 295.916 992 342.084 1190 342.084 C 1388 342.084 1587 295.916 1785 295.916 C 1983 295.916 2182 342.084 2380 342.084" transform="matrix(1,0,0,1,-399.5039978027344,0)" style="fill:none;stroke:rgb(40, 174, 207);transform:matrix(1, 0, 0, 1, -399.504, 0);;animation:none"></path>
<path stroke-width="2" stroke-opacity="0.4318181818181818" stroke="rgb(40, 176, 205)" fill="none" d="M 0 343.172 C 198 343.172 397 294.828 595 294.828 C 793 294.828 992 343.172 1190 343.172 C 1388 343.172 1587 294.828 1785 294.828 C 1983 294.828 2182 343.172 2380 343.172" transform="matrix(1,0,0,1,-405.84521484375,0)" style="fill:none;stroke:rgb(40, 176, 205);transform:matrix(1, 0, 0, 1, -405.845, 0);;animation:none"></path>
<path stroke-width="2" stroke-opacity="0.45454545454545453" stroke="rgb(39, 179, 202)" fill="none" d="M 0 344.212 C 198 344.212 397 293.788 595 293.788 C 793 293.788 992 344.212 1190 344.212 C 1388 344.212 1587 293.788 1785 293.788 C 1983 293.788 2182 344.212 2380 344.212" transform="matrix(1,0,0,1,-412.1864929199219,0)" style="fill:none;stroke:rgb(39, 179, 202);transform:matrix(1, 0, 0, 1, -412.187, 0);;animation:none"></path>
<path stroke-width="2" stroke-opacity="0.4772727272727273" stroke="rgb(39, 181, 200)" fill="none" d="M 0 345.205 C 198 345.205 397 292.795 595 292.795 C 793 292.795 992 345.205 1190 345.205 C 1388 345.205 1587 292.795 1785 292.795 C 1983 292.795 2182 345.205 2380 345.205" transform="matrix(1,0,0,1,-418.5279846191406,0)" style="fill:none;stroke:rgb(39, 181, 200);transform:matrix(1, 0, 0, 1, -418.528, 0);;animation:none"></path>
<path stroke-width="2" stroke-opacity="0.5" stroke="rgb(39, 184, 197)" fill="none" d="M 0 346.15 C 198 346.15 397 291.85 595 291.85 C 793 291.85 992 346.15 1190 346.15 C 1388 346.15 1587 291.85 1785 291.85 C 1983 291.85 2182 346.15 2380 346.15" transform="matrix(1,0,0,1,-424.8692321777344,0)" style="fill:none;stroke:rgb(39, 184, 197);transform:matrix(1, 0, 0, 1, -424.869, 0);;animation:none"></path>
<path stroke-width="2" stroke-opacity="0.5227272727272727" stroke="rgb(38, 187, 194)" fill="none" d="M 0 347.049 C 198 347.049 397 290.951 595 290.951 C 793 290.951 992 347.049 1190 347.049 C 1388 347.049 1587 290.951 1785 290.951 C 1983 290.951 2182 347.049 2380 347.049" transform="matrix(1,0,0,1,-431.21044921875,0)" style="fill:none;stroke:rgb(38, 187, 194);transform:matrix(1, 0, 0, 1, -431.21, 0);;animation:none"></path>
<path stroke-width="2" stroke-opacity="0.5454545454545454" stroke="rgb(38, 190, 191)" fill="none" d="M 0 347.902 C 198 347.902 397 290.098 595 290.098 C 793 290.098 992 347.902 1190 347.902 C 1388 347.902 1587 290.098 1785 290.098 C 1983 290.098 2182 347.902 2380 347.902" transform="matrix(1,0,0,1,-437.552001953125,0)" style="fill:none;stroke:rgb(38, 190, 191);transform:matrix(1, 0, 0, 1, -437.552, 0);;animation:none"></path>
<path stroke-width="2" stroke-opacity="0.5681818181818182" stroke="rgb(38, 193, 188)" fill="none" d="M 0 348.709 C 198 348.709 397 289.291 595 289.291 C 793 289.291 992 348.709 1190 348.709 C 1388 348.709 1587 289.291 1785 289.291 C 1983 289.291 2182 348.709 2380 348.709" transform="matrix(1,0,0,1,-443.8932189941406,0)" style="fill:none;stroke:rgb(38, 193, 188);transform:matrix(1, 0, 0, 1, -443.893, 0);;animation:none"></path>
<path stroke-width="2" stroke-opacity="0.5909090909090909" stroke="rgb(37, 196, 185)" fill="none" d="M 0 349.472 C 198 349.472 397 288.528 595 288.528 C 793 288.528 992 349.472 1190 349.472 C 1388 349.472 1587 288.528 1785 288.528 C 1983 288.528 2182 349.472 2380 349.472" transform="matrix(1,0,0,1,-450.2344665527344,0)" style="fill:none;stroke:rgb(37, 196, 185);transform:matrix(1, 0, 0, 1, -450.234, 0);;animation:none"></path>
<path stroke-width="2" stroke-opacity="0.6136363636363636" stroke="rgb(37, 198, 183)" fill="none" d="M 0 350.191 C 198 350.191 397 287.809 595 287.809 C 793 287.809 992 350.192 1190 350.192 C 1388 350.192 1587 287.809 1785 287.809 C 1983 287.809 2182 350.192 2380 350.192" transform="matrix(1,0,0,1,-456.57598876953125,0)" style="fill:none;stroke:rgb(37, 198, 183);transform:matrix(1, 0, 0, 1, -456.576, 0);;animation:none"></path>
<path stroke-width="2" stroke-opacity="0.6363636363636364" stroke="rgb(36, 201, 180)" fill="none" d="M 0 350.868 C 198 350.868 397 287.132 595 287.132 C 793 287.132 992 350.868 1190 350.868 C 1388 350.868 1587 287.132 1785 287.132 C 1983 287.132 2182 350.868 2380 350.868" transform="matrix(1,0,0,1,-462.917236328125,0)" style="fill:none;stroke:rgb(36, 201, 180);transform:matrix(1, 0, 0, 1, -462.917, 0);;animation:none"></path>
<path stroke-width="2" stroke-opacity="0.6590909090909091" stroke="rgb(36, 204, 177)" fill="none" d="M 0 351.504 C 198 351.504 397 286.496 595 286.496 C 793 286.496 992 351.504 1190 351.504 C 1388 351.504 1587 286.496 1785 286.496 C 1983 286.496 2182 351.504 2380 351.504" transform="matrix(1,0,0,1,-469.2584533691406,0)" style="fill:none;stroke:rgb(36, 204, 177);transform:matrix(1, 0, 0, 1, -469.258, 0);;animation:none"></path>
<g></g></g><!-- [ldio] generated by https://loading.io --></svg>